{
    "accessors": {
        "accessor_38": {
            "bufferView": "bufferView_49",
            "byteOffset": 0,
            "byteStride": 0,
            "componentType": 5123,
            "count": 165,
            "type": "SCALAR"
        },
        "accessor_41": {
            "bufferView": "bufferView_49",
            "byteOffset": 330,
            "byteStride": 0,
            "componentType": 5123,
            "count": 462,
            "type": "SCALAR"
        },
        "accessor_43": {
            "bufferView": "bufferView_50",
            "byteOffset": 0,
            "byteStride": 12,
            "componentType": 5126,
            "count": 620,
            "max": [
                54.4063,
                7,
                12.7056
            ],
            "min": [
                -0.8125,
                -13.5,
                0
            ],
            "type": "VEC3"
        },
        "accessor_45": {
            "bufferView": "bufferView_50",
            "byteOffset": 7440,
            "byteStride": 12,
            "componentType": 5126,
            "count": 620,
            "max": [
                1,
                1,
                1
            ],
            "min": [
                -0.998053,
                -1,
                -0.992859
            ],
            "type": "VEC3"
        },
        "accessor_47": {
            "bufferView": "bufferView_50",
            "byteOffset": 14880,
            "byteStride": 8,
            "componentType": 5126,
            "count": 620,
            "max": [
                0.999913,
                0.99999
            ],
            "min": [
                5.71311e-005,
                0.00120246
            ],
            "type": "VEC2"
        }
    },
    "animations": {},
    "asset": {
        "generator": "collada2gltf@cf6371beb0bdc18ba603378d5e40c966da53d385",
        "premultipliedAlpha": true,
        "profile": {
            "api": "WebGL",
            "version": "1.0.2"
        },
        "version": "1.0"
    },
    "bufferViews": {
        "bufferView_49": {
            "buffer": "UUID_78bd65e3-e80b-45e8-873f-efdc0b8791a2",
            "byteLength": 1256,
            "byteOffset": 0,
            "target": 34963
        },
        "bufferView_50": {
            "buffer": "UUID_78bd65e3-e80b-45e8-873f-efdc0b8791a2",
            "byteLength": 19840,
            "byteOffset": 1256,
            "target": 34962
        }
    },
    "buffers": {
        "UUID_78bd65e3-e80b-45e8-873f-efdc0b8791a2": {
            "byteLength": 21096,
            "type": "arraybuffer",
            "uri": "data:application/octet-stream;base64,"
        }
    },
    "images": {
        "textureAtlas_5196282_0_img": {
            "name": "textureAtlas_5196282_0_img",
            "uri": "data:image/jpeg;base64,"
        },
        "textureAtlas_5196282_1_img": {
            "name": "textureAtlas_5196282_1_img",
            "uri": "data:image/jpeg;base64,"
        }
    },
    "materials": {
        "textureAtlas_5196282_0_eff": {
            "name": "textureAtlas_5196282_0_mat",
            "technique": "technique0",
            "values": {
                "diffuse": "texture_textureAtlas_5196282_0_img",
                "emission": [
                    0,
                    0,
                    0,
                    1
                ]
            }
        },
        "textureAtlas_5196282_1_eff": {
            "name": "textureAtlas_5196282_1_mat",
            "technique": "technique0",
            "values": {
                "diffuse": "texture_textureAtlas_5196282_1_img",
                "emission": [
                    0,
                    0,
                    0,
                    1
                ]
            }
        }
    },
    "meshes": {
        "geometry0": {
            "name": "geometry0",
            "primitives": [
                {
                    "attributes": {
                        "NORMAL": "accessor_45",
                        "POSITION": "accessor_43",
                        "TEXCOORD_0": "accessor_47"
                    },
                    "indices": "accessor_38",
                    "material": "textureAtlas_5196282_1_eff",
                    "mode": 4
                },
                {
                    "attributes": {
                        "NORMAL": "accessor_45",
                        "POSITION": "accessor_43",
                        "TEXCOORD_0": "accessor_47"
                    },
                    "indices": "accessor_41",
                    "material": "textureAtlas_5196282_0_eff",
                    "mode": 4
                }
            ]
        }
    },
    "nodes": {
        "node_0": {
            "children": [],
            "matrix": [
                1,
                0,
                0,
                0,
                0,
                1,
                0,
                0,
                0,
                0,
                1,
                0,
                0,
                0,
                0,
                1
            ],
            "meshes": [
                "geometry0"
            ],
            "name": ""
        },
        "node_1": {
            "children": [
                "node_0"
            ],
            "matrix": [
                1,
                0,
                0,
                0,
                0,
                0,
                -1,
                0,
                0,
                1,
                0,
                0,
                0,
                0,
                0,
                1
            ],
            "name": "Y_UP_Transform"
        }
    },
    "programs": {
        "program_0": {
            "attributes": [
                "a_normal",
                "a_position",
                "a_texcoord0"
            ],
            "fragmentShader": "UUID_78bd65e3-e80b-45e8-873f-efdc0b8791a20FS",
            "vertexShader": "UUID_78bd65e3-e80b-45e8-873f-efdc0b8791a20VS"
        }
    },
    "samplers": {
        "sampler_0": {
            "magFilter": 9729,
            "minFilter": 9729,
            "wrapS": 10497,
            "wrapT": 10497
        }
    },
    "scene": "defaultScene",
    "scenes": {
        "defaultScene": {
            "nodes": [
                "node_1"
            ]
        }
    },
    "shaders": {
        "UUID_78bd65e3-e80b-45e8-873f-efdc0b8791a20FS": {
            "type": 35632,
            "uri": "data:text/plain;base64,"
        },
        "UUID_78bd65e3-e80b-45e8-873f-efdc0b8791a20VS": {
            "type": 35633,
            "uri": "data:text/plain;base64,"
        }
    },
    "skins": {},
    "techniques": {
        "technique0": {
            "attributes": {
                "a_normal": "normal",
                "a_position": "position",
                "a_texcoord0": "texcoord0"
            },
            "parameters": {
                "diffuse": {
                    "type": 35678
                },
                "emission": {
                    "type": 35666
                },
                "modelViewMatrix": {
                    "semantic": "MODELVIEW",
                    "type": 35676
                },
                "normal": {
                    "semantic": "NORMAL",
                    "type": 35665
                },
                "normalMatrix": {
                    "semantic": "MODELVIEWINVERSETRANSPOSE",
                    "type": 35675
                },
                "position": {
                    "semantic": "POSITION",
                    "type": 35665
                },
                "projectionMatrix": {
                    "semantic": "PROJECTION",
                    "type": 35676
                },
                "texcoord0": {
                    "semantic": "TEXCOORD_0",
                    "type": 35664
                }
            },
            "program": "program_0",
            "states": {
                "enable": [
                    2929
                ]
            },
            "uniforms": {
                "u_diffuse": "diffuse",
                "u_emission": "emission",
                "u_modelViewMatrix": "modelViewMatrix",
                "u_normalMatrix": "normalMatrix",
                "u_projectionMatrix": "projectionMatrix"
            }
        }
    },
    "textures": {
        "texture_textureAtlas_5196282_0_img": {
            "format": 6408,
            "internalFormat": 6408,
            "sampler": "sampler_0",
            "source": "textureAtlas_5196282_0_img",
            "target": 3553,
            "type": 5121
        },
        "texture_textureAtlas_5196282_1_img": {
            "format": 6408,
            "internalFormat": 6408,
            "sampler": "sampler_0",
            "source": "textureAtlas_5196282_1_img",
            "target": 3553,
            "type": 5121
        }
    }
}