{
    "accessors": {
        "accessor_72": {
            "bufferView": "bufferView_89",
            "byteOffset": 0,
            "byteStride": 0,
            "componentType": 5123,
            "count": 24,
            "type": "SCALAR"
        },
        "accessor_75": {
            "bufferView": "bufferView_89",
            "byteOffset": 48,
            "byteStride": 0,
            "componentType": 5123,
            "count": 180,
            "type": "SCALAR"
        },
        "accessor_78": {
            "bufferView": "bufferView_89",
            "byteOffset": 408,
            "byteStride": 0,
            "componentType": 5123,
            "count": 207,
            "type": "SCALAR"
        },
        "accessor_81": {
            "bufferView": "bufferView_89",
            "byteOffset": 822,
            "byteStride": 0,
            "componentType": 5123,
            "count": 627,
            "type": "SCALAR"
        },
        "accessor_83": {
            "bufferView": "bufferView_90",
            "byteOffset": 0,
            "byteStride": 12,
            "componentType": 5126,
            "count": 1038,
            "max": [
                1,
                9,
                63.0707
            ],
            "min": [
                -34.875,
                -61,
                0
            ],
            "type": "VEC3"
        },
        "accessor_85": {
            "bufferView": "bufferView_90",
            "byteOffset": 12456,
            "byteStride": 12,
            "componentType": 5126,
            "count": 1038,
            "max": [
                1,
                1,
                1
            ],
            "min": [
                -0.999726,
                -1,
                -1
            ],
            "type": "VEC3"
        },
        "accessor_87": {
            "bufferView": "bufferView_90",
            "byteOffset": 24912,
            "byteStride": 8,
            "componentType": 5126,
            "count": 1038,
            "max": [
                0.99997,
                0.999973
            ],
            "min": [
                0,
                2.95639e-005
            ],
            "type": "VEC2"
        }
    },
    "animations": {},
    "asset": {
        "generator": "collada2gltf@cf6371beb0bdc18ba603378d5e40c966da53d385",
        "premultipliedAlpha": true,
        "profile": {
            "api": "WebGL",
            "version": "1.0.2"
        },
        "version": "1.0"
    },
    "bufferViews": {
        "bufferView_89": {
            "buffer": "UUID_8776dd90-c7ef-43cd-b5c8-c306475e7f8f",
            "byteLength": 2076,
            "byteOffset": 0,
            "target": 34963
        },
        "bufferView_90": {
            "buffer": "UUID_8776dd90-c7ef-43cd-b5c8-c306475e7f8f",
            "byteLength": 33216,
            "byteOffset": 2076,
            "target": 34962
        }
    },
    "buffers": {
        "UUID_8776dd90-c7ef-43cd-b5c8-c306475e7f8f": {
            "byteLength": 35292,
            "type": "arraybuffer",
            "uri": "data:application/octet-stream;base64,"
        }
    },
    "images": {
        "textureAtlas_23344916_0_img": {
            "name": "textureAtlas_23344916_0_img",
            "uri": "data:image/jpeg;base64,"
        },
        "textureAtlas_23344916_1_img": {
            "name": "textureAtlas_23344916_1_img",
            "uri": "data:image/jpeg;base64,"
        },
        "textureAtlas_23344916_2_img": {
            "name": "textureAtlas_23344916_2_img",
            "uri": "data:image/jpeg;base64,"
        },
        "textureAtlas_23344916_3_img": {
            "name": "textureAtlas_23344916_3_img",
            "uri": "data:image/jpeg;base64,"
        }
    },
    "materials": {
        "textureAtlas_23344916_0_eff": {
            "name": "textureAtlas_23344916_0_mat",
            "technique": "technique0",
            "values": {
                "diffuse": "texture_textureAtlas_23344916_0_img",
                "emission": [
                    0,
                    0,
                    0,
                    1
                ]
            }
        },
        "textureAtlas_23344916_1_eff": {
            "name": "textureAtlas_23344916_1_mat",
            "technique": "technique0",
            "values": {
                "diffuse": "texture_textureAtlas_23344916_1_img",
                "emission": [
                    0,
                    0,
                    0,
                    1
                ]
            }
        },
        "textureAtlas_23344916_2_eff": {
            "name": "textureAtlas_23344916_2_mat",
            "technique": "technique0",
            "values": {
                "diffuse": "texture_textureAtlas_23344916_2_img",
                "emission": [
                    0,
                    0,
                    0,
                    1
                ]
            }
        },
        "textureAtlas_23344916_3_eff": {
            "name": "textureAtlas_23344916_3_mat",
            "technique": "technique0",
            "values": {
                "diffuse": "texture_textureAtlas_23344916_3_img",
                "emission": [
                    0,
                    0,
                    0,
                    1
                ]
            }
        }
    },
    "meshes": {
        "geometry0": {
            "name": "geometry0",
            "primitives": [
                {
                    "attributes": {
                        "NORMAL": "accessor_85",
                        "POSITION": "accessor_83",
                        "TEXCOORD_0": "accessor_87"
                    },
                    "indices": "accessor_72",
                    "material": "textureAtlas_23344916_3_eff",
                    "mode": 4
                },
                {
                    "attributes": {
                        "NORMAL": "accessor_85",
                        "POSITION": "accessor_83",
                        "TEXCOORD_0": "accessor_87"
                    },
                    "indices": "accessor_75",
                    "material": "textureAtlas_23344916_2_eff",
                    "mode": 4
                },
                {
                    "attributes": {
                        "NORMAL": "accessor_85",
                        "POSITION": "accessor_83",
                        "TEXCOORD_0": "accessor_87"
                    },
                    "indices": "accessor_78",
                    "material": "textureAtlas_23344916_1_eff",
                    "mode": 4
                },
                {
                    "attributes": {
                        "NORMAL": "accessor_85",
                        "POSITION": "accessor_83",
                        "TEXCOORD_0": "accessor_87"
                    },
                    "indices": "accessor_81",
                    "material": "textureAtlas_23344916_0_eff",
                    "mode": 4
                }
            ]
        }
    },
    "nodes": {
        "node_0": {
            "children": [],
            "matrix": [
                1,
                0,
                0,
                0,
                0,
                1,
                0,
                0,
                0,
                0,
                1,
                0,
                0,
                0,
                0,
                1
            ],
            "meshes": [
                "geometry0"
            ],
            "name": ""
        },
        "node_1": {
            "children": [
                "node_0"
            ],
            "matrix": [
                1,
                0,
                0,
                0,
                0,
                0,
                -1,
                0,
                0,
                1,
                0,
                0,
                0,
                0,
                0,
                1
            ],
            "name": "Y_UP_Transform"
        }
    },
    "programs": {
        "program_0": {
            "attributes": [
                "a_normal",
                "a_position",
                "a_texcoord0"
            ],
            "fragmentShader": "UUID_8776dd90-c7ef-43cd-b5c8-c306475e7f8f0FS",
            "vertexShader": "UUID_8776dd90-c7ef-43cd-b5c8-c306475e7f8f0VS"
        }
    },
    "samplers": {
        "sampler_0": {
            "magFilter": 9729,
            "minFilter": 9729,
            "wrapS": 10497,
            "wrapT": 10497
        }
    },
    "scene": "defaultScene",
    "scenes": {
        "defaultScene": {
            "nodes": [
                "node_1"
            ]
        }
    },
    "shaders": {
        "UUID_8776dd90-c7ef-43cd-b5c8-c306475e7f8f0FS": {
            "type": 35632,
            "uri": "data:text/plain;base64,"
        },
        "UUID_8776dd90-c7ef-43cd-b5c8-c306475e7f8f0VS": {
            "type": 35633,
            "uri": "data:text/plain;base64,"
        }
    },
    "skins": {},
    "techniques": {
        "technique0": {
            "attributes": {
                "a_normal": "normal",
                "a_position": "position",
                "a_texcoord0": "texcoord0"
            },
            "parameters": {
                "diffuse": {
                    "type": 35678
                },
                "emission": {
                    "type": 35666
                },
                "modelViewMatrix": {
                    "semantic": "MODELVIEW",
                    "type": 35676
                },
                "normal": {
                    "semantic": "NORMAL",
                    "type": 35665
                },
                "normalMatrix": {
                    "semantic": "MODELVIEWINVERSETRANSPOSE",
                    "type": 35675
                },
                "position": {
                    "semantic": "POSITION",
                    "type": 35665
                },
                "projectionMatrix": {
                    "semantic": "PROJECTION",
                    "type": 35676
                },
                "texcoord0": {
                    "semantic": "TEXCOORD_0",
                    "type": 35664
                }
            },
            "program": "program_0",
            "states": {
                "enable": [
                    2929
                ]
            },
            "uniforms": {
                "u_diffuse": "diffuse",
                "u_emission": "emission",
                "u_modelViewMatrix": "modelViewMatrix",
                "u_normalMatrix": "normalMatrix",
                "u_projectionMatrix": "projectionMatrix"
            }
        }
    },
    "textures": {
        "texture_textureAtlas_23344916_0_img": {
            "format": 6408,
            "internalFormat": 6408,
            "sampler": "sampler_0",
            "source": "textureAtlas_23344916_0_img",
            "target": 3553,
            "type": 5121
        },
        "texture_textureAtlas_23344916_1_img": {
            "format": 6408,
            "internalFormat": 6408,
            "sampler": "sampler_0",
            "source": "textureAtlas_23344916_1_img",
            "target": 3553,
            "type": 5121
        },
        "texture_textureAtlas_23344916_2_img": {
            "format": 6408,
            "internalFormat": 6408,
            "sampler": "sampler_0",
            "source": "textureAtlas_23344916_2_img",
            "target": 3553,
            "type": 5121
        },
        "texture_textureAtlas_23344916_3_img": {
            "format": 6408,
            "internalFormat": 6408,
            "sampler": "sampler_0",
            "source": "textureAtlas_23344916_3_img",
            "target": 3553,
            "type": 5121
        }
    }
}